<svg width="17" height="20" viewBox="0 0 17 20" fill="none" xmlns="http://www.w3.org/2000/svg">
<path fill-rule="evenodd" clip-rule="evenodd" d="M7.28571 18.2143C7.28571 18.8849 6.74206 19.4286 6.07143 19.4286C5.4008 19.4286 4.85714 18.8849 4.85714 18.2143V4.85714C4.85714 4.18651 5.4008 3.64286 6.07143 3.64286C6.74206 3.64286 7.28571 4.18651 7.28571 4.85714V18.2143ZM2.42857 18.2143C2.42857 18.8849 1.88492 19.4286 1.21429 19.4286C0.543654 19.4286 0 18.8849 0 18.2143V9.71429C0 9.04365 0.543654 8.5 1.21429 8.5C1.88492 8.5 2.42857 9.04365 2.42857 9.71429V18.2143ZM9.71429 18.2143V7.28571C9.71429 6.61508 10.2579 6.07143 10.9286 6.07143C11.5992 6.07143 12.1429 6.61508 12.1429 7.28571V18.2143C12.1429 18.8849 11.5992 19.4286 10.9286 19.4286C10.2579 19.4286 9.71429 18.8849 9.71429 18.2143ZM14.5714 1.21429C14.5714 0.543654 15.1151 0 15.7857 0C16.4563 0 17 0.543654 17 1.21429V18.2143C17 18.8849 16.4563 19.4286 15.7857 19.4286C15.1151 19.4286 14.5714 18.8849 14.5714 18.2143V1.21429Z" fill="black"/>
</svg>
