<svg width="18" height="19" viewBox="0 0 18 19" fill="none" xmlns="http://www.w3.org/2000/svg">
<path d="M10.125 16.9087L16.875 17.8028V11.1765H10.125V16.9087ZM9.5625 10.0588H17.4375C17.7482 10.0588 18 10.309 18 10.6176V18.4411C18 18.7791 17.7004 19.0397 17.3632 18.995L9.48816 17.9519C9.2087 17.9149 9 17.678 9 17.398V10.6176C9 10.309 9.25184 10.0588 9.5625 10.0588ZM7.875 10.6176V17.0999C7.875 17.4379 7.57537 17.6985 7.23816 17.6538L0.488158 16.7597C0.208704 16.7227 0 16.4859 0 16.2058V10.6176C0 10.309 0.25184 10.0588 0.5625 10.0588H7.3125C7.62316 10.0588 7.875 10.309 7.875 10.6176ZM6.75 11.1765H1.125V15.7166L6.75 16.4617V11.1765ZM9.48816 1.04812L17.3632 0.00499465C17.7004 -0.0396724 18 0.220944 18 0.558911V8.38236C18 8.69099 17.7482 8.94118 17.4375 8.94118H9.5625C9.25184 8.94118 9 8.69099 9 8.38236V1.60204C9 1.32196 9.2087 1.08514 9.48816 1.04812ZM10.125 2.09129V7.82355H16.875V1.19718L10.125 2.09129ZM7.875 1.90007V8.38236C7.875 8.69099 7.62316 8.94118 7.3125 8.94118H0.5625C0.25184 8.94118 0 8.69099 0 8.38236V2.79418C0 2.5141 0.208704 2.27728 0.488158 2.24027L7.23816 1.34616C7.57537 1.30149 7.875 1.56211 7.875 1.90007ZM6.75 2.53835L1.125 3.28344V7.82355H6.75V2.53835Z" fill="#FE2C55"/>
</svg>
