<svg width="50" height="50" viewBox="0 0 50 50" fill="none" xmlns="http://www.w3.org/2000/svg">
<g opacity="0.9" clip-path="url(#clip0_5_2)">
<mask id="mask0_5_2" style="mask-type:luminance" maskUnits="userSpaceOnUse" x="-18" y="-33" width="84" height="106">
<path d="M-17.0455 -32.1429H65.9091V72.1429H-17.0455V-32.1429Z" fill="white"/>
</mask>
<g mask="url(#mask0_5_2)">
<path d="M16.8876 22.8777H26.5836C27.1199 22.8777 27.2719 22.685 27.2719 21.9998C27.2724 19.579 27.2643 17.1579 27.2801 14.7371C27.2825 14.3506 27.198 14.2674 26.9012 14.268C21.2563 14.2796 15.6114 14.2815 9.96647 14.2664C9.55247 14.2653 9.16542 14.3878 8.81909 14.5925C7.48721 15.3793 6.75421 16.7244 6.69929 18.5832C6.66112 19.8754 6.70221 21.171 6.68147 22.4644C6.67571 22.8213 6.75682 22.887 7.02573 22.886C10.313 22.8732 13.6003 22.8777 16.8876 22.8777ZM45.2416 43.7609C45.2377 41.9104 45.2266 40.0598 45.2368 38.2094C45.2387 37.8787 45.1672 37.8046 44.9111 37.805C38.8443 37.8145 32.7774 37.8098 26.7106 37.8204C26.4312 37.8207 26.3404 37.7607 26.3442 37.3767C26.3634 35.4705 26.3187 33.5624 26.3624 31.6575C26.4077 29.6875 27.1269 28.1247 28.3937 26.9761C29.0284 26.4007 29.7545 26.0826 30.547 25.9352C30.3363 25.0132 29.9035 24.2895 29.3029 23.713C29.1248 23.5421 28.9373 23.3913 28.7379 23.2571C28.3798 23.0163 28.0567 23.0587 27.6847 23.2578C27.2906 23.4687 27.1958 23.8511 27.1638 24.2904C27.0839 25.3841 26.7443 26.3634 26.3133 27.2879C25.7788 28.4342 25.0607 29.3725 24.1623 30.0981C22.9434 31.0825 21.6068 31.4924 20.1751 31.4925C15.8021 31.4928 11.4291 31.4971 7.05615 31.4832C6.74983 31.4822 6.68163 31.5841 6.68232 31.9585C6.69246 37.3858 6.68608 42.8133 6.69645 48.2406C6.69714 48.602 6.63569 48.694 6.34144 48.6914C4.27126 48.6724 2.20093 48.6762 0.130754 48.6885C-0.100137 48.6898 -0.159203 48.6227 -0.158973 48.3274C-0.151907 39.7411 -0.161738 31.1546 -0.143918 22.5683C-0.141307 21.3218 0.146345 20.1352 0.587848 19.0037C1.12797 17.6196 1.9102 16.516 2.92087 15.6696C3.63082 15.075 4.4046 14.6439 5.25074 14.4433C5.3436 14.4213 5.43362 14.3801 5.51642 14.2786H-0.130937C0.38653 13.7937 0.834714 13.3573 1.29619 12.9445C2.49043 11.8762 3.69119 10.8195 4.88804 9.75592C5.7851 8.95871 6.67971 8.15716 7.57623 7.35899C8.17204 6.82848 8.77646 6.31256 9.36121 5.76351C9.5209 5.61355 9.6739 5.59057 9.85203 5.59067C15.952 5.59202 22.0521 5.59183 28.1521 5.59183C30.0342 5.59183 31.9162 5.601 33.7982 5.58198C34.084 5.57908 34.1327 5.68143 34.132 6.0165C34.1224 10.5253 34.1287 15.0342 34.1191 19.5431C34.1185 19.8791 34.1691 19.978 34.4539 19.9773C39.5132 19.9645 44.5726 19.9715 49.632 19.9594C49.9295 19.9586 50.0149 20.0428 50.0108 20.4289C49.9924 22.1542 49.9973 23.8801 50.0082 25.6056C50.01 25.8881 49.9656 25.9755 49.7251 25.975C44.4223 25.9621 39.1194 25.9569 33.8165 25.9622C32.8094 25.9632 32.0084 26.5215 31.4101 27.5304C31.1945 27.894 31.0793 28.3185 31.0767 28.7745C31.0715 29.7062 31.0829 30.6379 31.0773 31.5695C31.076 31.772 31.1269 31.8492 31.2853 31.8277C31.3618 31.8173 31.4401 31.826 31.5176 31.826C37.5623 31.826 43.6069 31.829 49.6516 31.8166C49.9458 31.816 50.0112 31.9054 50.0101 32.2698C49.9983 36.1106 50.0284 39.9518 49.9923 43.7923C49.9734 45.8162 49.2904 47.4418 47.9421 48.6332C47.3989 49.1132 46.8082 49.3605 46.1957 49.5904C46.1372 49.6123 46.0701 49.644 46.0002 49.5582C46.0346 49.524 46.0628 49.4763 46.0992 49.4624C47.1038 49.0794 47.8093 47.4871 47.6089 46.2585C47.4165 45.0791 46.8464 44.3001 45.968 43.8785C45.7579 43.7777 45.5127 43.7921 45.2838 43.7534C45.2695 43.7549 45.2556 43.7574 45.2416 43.7609Z" fill="#DEDEDD"/>
<path d="M45.2416 43.7222C45.2555 43.7187 45.2696 43.7163 45.2837 43.7147C45.1828 44.3078 45.217 44.9157 45.0538 45.5131C44.7807 46.5121 44.3622 47.3681 43.7482 48.0691C42.8134 49.1364 41.7199 49.6595 40.4396 49.6533C35.8571 49.6312 31.2744 49.6416 26.6918 49.6525C26.4272 49.6531 26.3413 49.5963 26.345 49.2344C26.3629 47.5094 26.3543 45.7838 26.3514 44.0585C26.3511 43.8529 26.3348 43.7074 26.5794 43.7079C32.8001 43.7199 39.0209 43.72 45.2416 43.7222Z" fill="#DEDEDD"/>
<path d="M43.9926 15.7938C43.9926 11.5292 41.2252 8.05016 37.833 8.05016C41.2252 8.05016 43.9926 4.57127 43.9926 0.30666C43.9926 4.57127 46.76 8.05016 50.1523 8.05016C46.76 8.05016 43.9926 11.5292 43.9926 15.7938Z" fill="#DEDEDD"/>
</g>
</g>
<defs>
<clipPath id="clip0_5_2">
<rect width="50" height="50" fill="white"/>
</clipPath>
</defs>
</svg>
