<svg width="23" height="23" viewBox="0 0 23 23" fill="none" xmlns="http://www.w3.org/2000/svg">
<path d="M6.83333 14.9737C6.83333 14.9737 8.7 17.3158 11.5 17.3158C14.3 17.3158 16.1667 14.9737 16.1667 14.9737M1 14.5053V11.6129C1 10.2677 1 9.59505 1.17273 8.97567C1.32573 8.427 1.57718 7.91094 1.91472 7.45284C2.29578 6.93571 2.82471 6.52277 3.88258 5.6969L6.91591 3.32877C8.55543 2.0488 9.37515 1.40881 10.2804 1.16281C11.0791 0.945731 11.9209 0.945731 12.7196 1.16281C13.6248 1.40881 14.4445 2.0488 16.0841 3.32877L19.1174 5.6969C20.1753 6.52277 20.7042 6.93571 21.0852 7.45284C21.4228 7.91094 21.6743 8.427 21.8272 8.97567C22 9.59505 22 10.2677 22 11.6129V14.5053C22 17.1287 22 18.4404 21.4913 19.4423C21.0439 20.3238 20.33 21.0403 19.452 21.4894C18.4537 22 17.1469 22 14.5333 22H8.46667C5.85309 22 4.5463 22 3.54805 21.4894C2.66995 21.0403 1.95605 20.3238 1.50863 19.4423C1 18.4404 1 17.1287 1 14.5053Z" stroke="#FE2C55" stroke-width="2" stroke-linecap="round" stroke-linejoin="round"/>
</svg>
